<svg xmlns="http://www.w3.org/2000/svg" width="1265" height="42" viewBox="0 0 1265 42">
  <path fill="#FFD692" d="M0,2.37194082 C29.4189765,9.05633699 50.9778924,12.4563305 64.6767479,12.5719213 C90.4413702,12.7893229 114.539575,4.61152275 137.297205,2 C178.204927,-2.6943132 218.439191,0.829660558 258,12.5719213 C296.702254,5.52397376 334.035588,2 370,2 C423.946619,2 428.4062,12.6632214 480.268643,12.5719213 C532.131087,12.4806212 524.706211,2 580.013851,2 C635.321492,2 645.299113,12.6595179 694.381622,12.5719213 C743.464131,12.4843247 732.704894,2 788.505551,2 C825.705989,2 864.071899,5.52397376 903.60328,12.5719213 L993.664268,2 C1023.99495,9.04794752 1053.64129,12.5719213 1082.60328,12.5719213 C1126.04627,12.5719213 1116.76262,2 1165.89558,2 C1198.65088,2 1231.68569,2.12398027 1265,2.37194082 L1265,42 L0,42 L0,2.37194082 Z"/>
</svg>
